<svg width="112" height="35" viewBox="0 0 112 35" fill="none" xmlns="http://www.w3.org/2000/svg">
<path d="M17.459 22.8867V27H3.83594V22.8867H17.459ZM5.55859 1.40625V27H0.285156V1.40625H5.55859ZM15.6836 11.8301V15.8379H3.83594V11.8301H15.6836ZM17.4414 1.40625V5.53711H3.83594V1.40625H17.4414ZM31.0996 22.8516V0H36.1973V27H31.6094L31.0996 22.8516ZM19.0762 17.7188V17.3496C19.0762 15.8965 19.2402 14.5781 19.5684 13.3945C19.8965 12.1992 20.377 11.1738 21.0098 10.3184C21.6426 9.46289 22.4219 8.80078 23.3477 8.33203C24.2734 7.86328 25.3281 7.62891 26.5117 7.62891C27.625 7.62891 28.5977 7.86328 29.4297 8.33203C30.2734 8.80078 30.9883 9.46875 31.5742 10.3359C32.1719 11.1914 32.6523 12.2051 33.0156 13.377C33.3789 14.5371 33.6426 15.8086 33.8066 17.1914V18C33.6426 19.3242 33.3789 20.5547 33.0156 21.6914C32.6523 22.8281 32.1719 23.8242 31.5742 24.6797C30.9883 25.5234 30.2734 26.1797 29.4297 26.6484C28.5859 27.1172 27.6016 27.3516 26.4766 27.3516C25.293 27.3516 24.2383 27.1113 23.3125 26.6309C22.3984 26.1504 21.625 25.4766 20.9922 24.6094C20.3711 23.7422 19.8965 22.7227 19.5684 21.5508C19.2402 20.3789 19.0762 19.1016 19.0762 17.7188ZM24.1387 17.3496V17.7188C24.1387 18.5039 24.1973 19.2363 24.3145 19.916C24.4434 20.5957 24.6484 21.1992 24.9297 21.7266C25.2227 22.2422 25.5977 22.6465 26.0547 22.9395C26.5234 23.2207 27.0918 23.3613 27.7598 23.3613C28.627 23.3613 29.3418 23.168 29.9043 22.7812C30.4668 22.3828 30.8945 21.8379 31.1875 21.1465C31.4922 20.4551 31.668 19.6582 31.7148 18.7559V16.4531C31.6797 15.7148 31.5742 15.0527 31.3984 14.4668C31.2344 13.8691 30.9883 13.3594 30.6602 12.9375C30.3438 12.5156 29.9453 12.1875 29.4648 11.9531C28.9961 11.7188 28.4395 11.6016 27.7949 11.6016C27.1387 11.6016 26.5762 11.7539 26.1074 12.0586C25.6387 12.3516 25.2578 12.7559 24.9648 13.2715C24.6836 13.7871 24.4727 14.3965 24.332 15.0996C24.2031 15.791 24.1387 16.541 24.1387 17.3496ZM51.4023 22.4473V7.98047H56.4648V27H51.7012L51.4023 22.4473ZM51.9648 18.5449L53.459 18.5098C53.459 19.7754 53.3125 20.9531 53.0195 22.043C52.7266 23.1211 52.2871 24.0586 51.7012 24.8555C51.1152 25.6406 50.377 26.2559 49.4863 26.7012C48.5957 27.1348 47.5469 27.3516 46.3398 27.3516C45.4141 27.3516 44.5586 27.2227 43.7734 26.9648C43 26.6953 42.332 26.2793 41.7695 25.7168C41.2188 25.1426 40.7852 24.4102 40.4688 23.5195C40.1641 22.6172 40.0117 21.5332 40.0117 20.2676V7.98047H45.0742V20.3027C45.0742 20.8652 45.1387 21.3398 45.2676 21.7266C45.4082 22.1133 45.6016 22.4297 45.8477 22.6758C46.0938 22.9219 46.3809 23.0977 46.709 23.2031C47.0488 23.3086 47.4238 23.3613 47.834 23.3613C48.877 23.3613 49.6973 23.1504 50.2949 22.7285C50.9043 22.3066 51.332 21.7324 51.5781 21.0059C51.8359 20.2676 51.9648 19.4473 51.9648 18.5449ZM72.0918 1.40625V27H66.8359V1.40625H72.0918ZM79.9668 1.40625V5.53711H59.084V1.40625H79.9668ZM86.4883 12.1289V27H81.4258V7.98047H86.1895L86.4883 12.1289ZM92.2188 7.85742L92.1309 12.5508C91.8848 12.5156 91.5859 12.4863 91.2344 12.4629C90.8945 12.4277 90.584 12.4102 90.3027 12.4102C89.5879 12.4102 88.9668 12.5039 88.4395 12.6914C87.9238 12.8672 87.4902 13.1309 87.1387 13.4824C86.7988 13.834 86.541 14.2617 86.3652 14.7656C86.2012 15.2695 86.1074 15.8438 86.084 16.4883L85.0645 16.1719C85.0645 14.9414 85.1875 13.8105 85.4336 12.7793C85.6797 11.7363 86.0371 10.8281 86.5059 10.0547C86.9863 9.28125 87.5723 8.68359 88.2637 8.26172C88.9551 7.83984 89.7461 7.62891 90.6367 7.62891C90.918 7.62891 91.2051 7.65234 91.498 7.69922C91.791 7.73438 92.0312 7.78711 92.2188 7.85742ZM100.568 24.8555L105.613 7.98047H111.045L103.398 29.8652C103.234 30.3457 103.012 30.8613 102.73 31.4121C102.461 31.9629 102.092 32.4844 101.623 32.9766C101.166 33.4805 100.586 33.8906 99.8828 34.207C99.1914 34.5234 98.3418 34.6816 97.334 34.6816C96.8535 34.6816 96.4609 34.6523 96.1562 34.5938C95.8516 34.5352 95.4883 34.4531 95.0664 34.3477V30.6387C95.1953 30.6387 95.3301 30.6387 95.4707 30.6387C95.6113 30.6504 95.7461 30.6562 95.875 30.6562C96.543 30.6562 97.0879 30.5801 97.5098 30.4277C97.9316 30.2754 98.2715 30.041 98.5293 29.7246C98.7871 29.4199 98.9922 29.0215 99.1445 28.5293L100.568 24.8555ZM98.459 7.98047L102.59 21.7617L103.311 27.123L99.8652 27.4922L93.0273 7.98047H98.459Z" fill="#254E7A"/>
</svg>
