<svg width="40" height="40" viewBox="0 0 40 40" fill="none" xmlns="http://www.w3.org/2000/svg">
<path d="M39.2543 19.6963C39.2543 8.81739 30.5509 0 19.8142 0C9.07745 0 0.374023 8.81739 0.374023 19.6963C0.374023 29.5248 7.48323 37.6725 16.7764 39.1497V25.3886H11.8414V19.6947H16.7764V15.3566C16.7764 10.4194 19.6797 7.69305 24.1189 7.69305C26.2461 7.69305 28.4706 8.07713 28.4706 8.07713V12.9241H26.0209C23.6069 12.9241 22.8536 14.4423 22.8536 16V19.6963H28.2454L27.3835 25.3902H22.8536V39.1514C32.1467 37.6741 39.2559 29.5264 39.2559 19.6963H39.2543Z" fill="#254E7A"/>
</svg>
