<svg width="39" height="40" viewBox="0 0 39 40" fill="none" xmlns="http://www.w3.org/2000/svg">
<path d="M19.441 0C14.1595 0 13.5001 0.0246194 11.4264 0.118173C9.35596 0.21665 7.94649 0.54655 6.70713 1.03401C5.42889 1.53625 4.34343 2.21082 3.26284 3.30556C2.18225 4.4003 1.51477 5.49833 1.02065 6.79495C0.539486 8.05054 0.21223 9.47846 0.116646 11.576C0.019441 13.6769 0 14.3449 0 19.6955C0 25.0461 0.0243012 25.7141 0.116646 27.815C0.21385 29.9109 0.539486 31.3405 1.02065 32.5961C1.50877 33.9105 2.27394 35.1013 3.26284 36.0854C4.23372 37.088 5.40928 37.8633 6.70713 38.357C7.94811 38.8428 9.35758 39.176 11.4264 39.2728C13.5001 39.3713 14.1595 39.391 19.441 39.391C24.7224 39.391 25.3818 39.3664 27.4555 39.2728C29.5243 39.1743 30.9354 38.8428 32.1748 38.357C33.4719 37.8619 34.6472 37.0868 35.6191 36.0854C36.609 35.1021 37.3743 33.9111 37.8613 32.5961C38.3408 31.3405 38.6697 29.9109 38.7653 27.815C38.8625 25.7141 38.8819 25.0461 38.8819 19.6955C38.8819 14.3449 38.8576 13.6769 38.7653 11.576C38.6681 9.4801 38.3408 8.04889 37.8613 6.79495C37.3729 5.48063 36.6078 4.28989 35.6191 3.30556C34.6489 2.30214 33.4731 1.52671 32.1748 1.03401C30.9354 0.54655 29.5243 0.215009 27.4555 0.118173C25.3818 0.0196955 24.7224 0 19.441 0ZM19.441 3.54519C24.6301 3.54519 25.2489 3.57145 27.2983 3.66172C29.1938 3.75199 30.2226 4.0704 30.9063 4.34286C31.8167 4.69902 32.4615 5.12575 33.1452 5.81346C33.824 6.5028 34.2452 7.15767 34.5968 8.08008C34.8625 8.7727 35.18 9.81492 35.2659 11.7352C35.3582 13.8131 35.3793 14.4368 35.3793 19.6955C35.3793 24.9542 35.355 25.5795 35.2594 27.6558C35.1606 29.5761 34.8447 30.6183 34.5774 31.3109C34.2611 32.1656 33.764 32.9398 33.1209 33.5792C32.4925 34.2313 31.7288 34.7336 30.8852 35.0498C30.2048 35.319 29.1598 35.6406 27.2643 35.7276C25.2003 35.8212 24.5928 35.8425 19.3924 35.8425C14.1903 35.8425 13.5827 35.8179 11.5204 35.7211C9.62327 35.621 8.57832 35.3009 7.89789 35.0301C7.05367 34.7136 6.29024 34.2094 5.6638 33.5546C5.01347 32.9222 4.5147 32.1474 4.20573 31.2896C3.93841 30.6002 3.62412 29.5416 3.52529 27.6213C3.45239 25.5533 3.42647 24.9148 3.42647 19.6709C3.42647 14.4253 3.45239 13.7852 3.52529 11.6926C3.62412 9.77225 3.93841 8.71526 4.20573 8.02592C4.54594 7.09038 4.98174 6.45028 5.6638 5.75929C6.34261 5.07159 6.97606 4.62844 7.89789 4.28541C8.57832 4.01296 9.60059 3.69291 11.4961 3.59443C13.5617 3.52057 14.1692 3.49595 19.368 3.49595L19.441 3.54519ZM19.441 9.58186C18.13 9.58186 16.8318 9.84346 15.6207 10.3517C14.4095 10.86 13.309 11.6049 12.382 12.5441C11.455 13.4832 10.7196 14.5981 10.2179 15.8252C9.71624 17.0522 9.45802 18.3674 9.45802 19.6955C9.45802 21.0236 9.71624 22.3388 10.2179 23.5658C10.7196 24.7929 11.455 25.9078 12.382 26.8469C13.309 27.7861 14.4095 28.531 15.6207 29.0393C16.8318 29.5475 18.13 29.8091 19.441 29.8091C22.0886 29.8091 24.6278 28.7436 26.4999 26.8469C28.3721 24.9502 29.4239 22.3778 29.4239 19.6955C29.4239 17.0132 28.3721 14.4408 26.4999 12.5441C24.6278 10.6474 22.0886 9.58186 19.441 9.58186ZM19.441 26.2607C15.8606 26.2607 12.9606 23.3228 12.9606 19.6955C12.9606 16.0682 15.8606 13.1303 19.441 13.1303C23.0213 13.1303 25.9213 16.0682 25.9213 19.6955C25.9213 23.3228 23.0213 26.2607 19.441 26.2607ZM32.1521 9.18303C32.1296 9.79461 31.874 10.3736 31.4389 10.7982C31.0039 11.2228 30.4233 11.46 29.8192 11.46C29.2151 11.46 28.6345 11.2228 28.1995 10.7982C27.7644 10.3736 27.5088 9.79461 27.4863 9.18303C27.4863 8.5562 27.7321 7.95504 28.1696 7.51181C28.6071 7.06857 29.2005 6.81957 29.8192 6.81957C30.4379 6.81957 31.0313 7.06857 31.4688 7.51181C31.9063 7.95504 32.1521 8.5562 32.1521 9.18303Z" fill="#254E7A"/>
</svg>
