<svg width="40" height="40" viewBox="0 0 40 40" fill="none" xmlns="http://www.w3.org/2000/svg">
<path d="M34.0418 33.5677H28.284V24.4273C28.284 22.2477 28.2403 19.4427 25.2836 19.4427C22.2816 19.4427 21.8231 21.8144 21.8231 24.2665V33.5677H16.0654V14.7716H21.5963V17.3337H21.6709C22.4436 15.8565 24.3229 14.2973 27.1305 14.2973C32.9644 14.2973 34.0434 18.1872 34.0434 23.2505L34.0418 33.5677ZM9.56238 12.1997C9.12314 12.1999 8.68817 12.1124 8.28236 11.9421C7.87656 11.7718 7.50789 11.5221 7.19745 11.2073C6.88701 10.8925 6.6409 10.5188 6.4732 10.1075C6.30551 9.69619 6.21952 9.25544 6.22016 8.81045C6.22048 8.14044 6.4169 7.48558 6.7846 6.92867C7.15229 6.37175 7.67473 5.93781 8.28586 5.68171C8.89699 5.42561 9.56936 5.35885 10.2179 5.48988C10.8665 5.62091 11.4622 5.94385 11.9296 6.41784C12.397 6.89184 12.7152 7.49561 12.8439 8.15281C12.9726 8.81001 12.9061 9.49112 12.6527 10.11C12.3993 10.7289 11.9705 11.2577 11.4204 11.6297C10.8703 12.0017 10.2237 12.2 9.56238 12.1997ZM12.4494 33.5677H6.6754V14.7716H12.4494V33.5677ZM36.9223 0H3.78518C2.19912 0 0.916016 1.27036 0.916016 2.83779V36.5532C0.916016 38.1223 2.19912 39.391 3.78518 39.391H36.9174C38.5019 39.391 39.7979 38.1223 39.7979 36.5532V2.83779C39.7979 1.27036 38.5019 0 36.9174 0H36.9223Z" fill="#254E7A"/>
</svg>
