<svg width="40" height="33" viewBox="0 0 40 33" fill="none" xmlns="http://www.w3.org/2000/svg">
<path d="M39.2638 4.79484C37.8082 5.44411 36.2661 5.87269 34.6872 6.06678C36.3496 5.05456 37.5942 3.46716 38.1913 1.59773C36.6507 2.50861 34.9432 3.17167 33.1255 3.54094C31.9264 2.2418 30.3373 1.38014 28.6051 1.08978C26.873 0.799412 25.0947 1.09659 23.5463 1.93515C21.998 2.77372 20.7663 4.10675 20.0424 5.72725C19.3186 7.34775 19.1432 9.16503 19.5434 10.8969C12.9175 10.5801 7.04498 7.35678 3.11483 2.48399C2.40007 3.7146 2.02725 5.1182 2.0359 6.54602C2.0359 9.35251 3.44531 11.8193 5.58049 13.2685C4.31503 13.2277 3.07752 12.881 1.9711 12.2575V12.3576C1.97038 14.2227 2.60658 16.0306 3.77175 17.4745C4.93693 18.9185 6.55932 19.9096 8.36367 20.2798C7.1945 20.5972 5.96996 20.6448 4.7802 20.4193C5.29253 22.0243 6.28653 23.4273 7.62356 24.4326C8.9606 25.4379 10.574 25.9954 12.2387 26.0273C9.41909 28.2691 5.93764 29.4858 2.35342 29.4821C1.72162 29.4821 1.09143 29.4444 0.458008 29.3722C4.11228 31.7426 8.36126 33.0009 12.7004 32.9976C27.368 32.9976 35.379 20.695 35.379 10.0435C35.379 9.70045 35.379 9.35415 35.3547 9.0095C36.9196 7.8686 38.2694 6.45215 39.3399 4.82766L39.2638 4.79484Z" fill="#82C2E6"/>
</svg>
